<?xml version="1.0" encoding="UTF-8"?>
<!DOCTYPE svg PUBLIC "-//W3C//DTD SVG 1.1//EN" "http://www.w3.org/Graphics/SVG/1.1/DTD/svg11.dtd">
<svg xmlns="http://www.w3.org/2000/svg" version="1.1" width="128px" height="128px" style="shape-rendering:geometricPrecision; text-rendering:geometricPrecision; image-rendering:optimizeQuality; fill-rule:evenodd; clip-rule:evenodd" xmlns:xlink="http://www.w3.org/1999/xlink">
<g><path style="opacity:0.993" fill="#208ffe" d="M 89.5,11.5 C 89.5,18.5 89.5,25.5 89.5,32.5C 89.5,33.5 89.5,34.5 89.5,35.5C 86.4649,35.4607 83.7982,34.4607 81.5,32.5C 70.0113,24.7952 57.3446,21.7952 43.5,23.5C 37.038,24.2146 32.7047,27.5479 30.5,33.5C 30.8519,36.217 32.1853,38.217 34.5,39.5C 36.3854,41.3115 38.7187,42.4782 41.5,43C 49.9229,44.5175 58.2562,46.3509 66.5,48.5C 70.2793,49.5578 73.9459,50.8911 77.5,52.5C 83.474,56.3088 88.3074,61.3088 92,67.5C 93.3288,74.092 93.8288,80.7586 93.5,87.5C 91.681,93.8099 88.3476,99.1433 83.5,103.5C 68.3952,113.459 51.7285,117.459 33.5,115.5C 22.2126,114.636 11.3793,111.97 1,107.5C 0.500228,98.5062 0.333562,89.5062 0.5,80.5C 1.87344,80.3433 3.20677,80.51 4.5,81C 13.0186,87.7855 22.6853,91.9522 33.5,93.5C 35.2897,94.9973 37.4563,95.664 40,95.5C 41.7067,95.4915 43.2067,95.1582 44.5,94.5C 51.7317,95.4896 57.8983,93.4896 63,88.5C 65.3069,83.7706 64.1402,80.1039 59.5,77.5C 58.8166,75.8235 57.4832,75.1568 55.5,75.5C 44.3997,73.1414 33.3997,70.3081 22.5,67C 5.01069,59.8553 -1.82265,47.0219 2,28.5C 5.35198,19.147 11.5187,12.3137 20.5,8C 43.21,0.538509 65.8766,0.871843 88.5,9C 89.2524,9.67076 89.5858,10.5041 89.5,11.5 Z"/></g>
<g><path style="opacity:0.965" fill="#cc5b5b" d="M 89.5,11.5 C 100.458,12.1916 111.124,14.3582 121.5,18C 122.484,26.7489 122.817,35.5822 122.5,44.5C 116.489,41.998 110.489,39.1647 104.5,36C 99.6708,34.0425 94.6708,32.8758 89.5,32.5C 89.5,25.5 89.5,18.5 89.5,11.5 Z"/></g>
<g><path style="opacity:0.973" fill="#cc5c5c" d="M 81.5,32.5 C 75.0741,32.0302 69.5741,34.0302 65,38.5C 62.9254,42.2058 63.4254,45.5391 66.5,48.5C 58.2562,46.3509 49.9229,44.5175 41.5,43C 38.7187,42.4782 36.3854,41.3115 34.5,39.5C 35.9544,33.2539 38.9544,27.9206 43.5,23.5C 57.3446,21.7952 70.0113,24.7952 81.5,32.5 Z"/></g>
<g><path style="opacity:0.972" fill="#cc5c5c" d="M 77.5,52.5 C 90.5312,54.2335 102.865,58.0669 114.5,64C 122.057,69.2907 126.39,76.4574 127.5,85.5C 127.5,87.8333 127.5,90.1667 127.5,92.5C 122.871,109.288 111.871,119.455 94.5,123C 78.36,125.455 62.36,124.788 46.5,121C 41.7455,119.815 37.4122,117.982 33.5,115.5C 51.7285,117.459 68.3952,113.459 83.5,103.5C 90.3271,103.095 94.9937,99.7613 97.5,93.5C 97.1481,90.783 95.8147,88.783 93.5,87.5C 93.8288,80.7586 93.3288,74.092 92,67.5C 88.3074,61.3088 83.474,56.3088 77.5,52.5 Z"/></g>
<g><path style="opacity:1" fill="#a37099" d="M 55.5,75.5 C 57.4832,75.1568 58.8166,75.8235 59.5,77.5C 58.0048,77.0113 56.6715,76.3446 55.5,75.5 Z"/></g>
<g><path style="opacity:0.89" fill="#c55e64" d="M 44.5,94.5 C 43.2067,95.1582 41.7067,95.4915 40,95.5C 37.4563,95.664 35.2897,94.9973 33.5,93.5C 33.5,92.1667 33.5,90.8333 33.5,89.5C 37.501,90.3322 41.1677,91.9988 44.5,94.5 Z"/></g>
</svg>
